<svg width="32" height="30" viewBox="0 0 32 30" fill="none" xmlns="http://www.w3.org/2000/svg">
<path d="M12.3708 29.104L12.362 29.0992L12.3345 29.0799C12.1738 28.9663 12.0143 28.8498 11.8561 28.7303C9.95481 27.2793 8.17797 25.5749 6.55508 23.6453C3.68097 20.2014 0.635742 15.0908 0.635742 8.79641C0.635742 4.09968 3.71345 0.375022 7.42818 0.375022C8.46085 0.368527 9.48138 0.661094 10.4139 1.23097C11.3463 1.80084 12.1668 2.63335 12.8142 3.66658C13.4617 2.63314 14.2823 1.8005 15.215 1.23062C16.1478 0.660736 17.1685 0.368285 18.2014 0.375022C21.9149 0.375022 24.9926 4.09968 24.9926 8.79641C24.9926 15.0924 21.9474 20.203 19.0733 23.6437C17.4504 25.5734 15.6736 27.2778 13.7722 28.7286C13.6141 28.8487 13.4546 28.9658 13.2938 29.0799L13.2663 29.0992L13.2576 29.1056L13.2538 29.1072C13.1184 29.1993 12.9674 29.2475 12.8142 29.2475C12.6609 29.2475 12.5099 29.1993 12.3745 29.1072L12.3708 29.104Z" fill="white"/>
<path d="M23.4061 26.4528L26.8214 17.8824H24.466V12.3369L20.9329 20.9072H23.4061V26.4528ZM23.8772 29.4776C22.7911 29.4776 21.7704 29.2129 20.8152 28.6836C19.8599 28.1542 19.029 27.4358 18.3224 26.5284C17.6158 25.6209 17.0564 24.5538 16.6442 23.3271C16.232 22.1004 16.0259 20.7896 16.0259 19.3948C16.0259 18 16.232 16.6893 16.6442 15.4626C17.0564 14.2358 17.6158 13.1687 18.3224 12.2613C19.029 11.3538 19.8599 10.6354 20.8152 10.1061C21.7704 9.57675 22.7911 9.31207 23.8772 9.31207C24.9633 9.31207 25.9839 9.57675 26.9392 10.1061C27.8944 10.6354 28.7253 11.3538 29.432 12.2613C30.1386 13.1687 30.698 14.2358 31.1102 15.4626C31.5224 16.6893 31.7285 18 31.7285 19.3948C31.7285 20.7896 31.5224 22.1004 31.1102 23.3271C30.698 24.5538 30.1386 25.6209 29.432 26.5284C28.7253 27.4358 27.8944 28.1542 26.9392 28.6836C25.9839 29.2129 24.9633 29.4776 23.8772 29.4776Z" fill="#894189"/>
<path d="M23.806 25.8111L26.9108 18.0199H24.7695V12.9785L21.5576 20.7697H23.806V25.8111ZM24.2342 28.5609C23.2469 28.5609 22.319 28.3203 21.4506 27.8391C20.5822 27.3579 19.8268 26.7048 19.1844 25.8798C18.542 25.0549 18.0335 24.0848 17.6588 22.9696C17.284 21.8544 17.0967 20.6628 17.0967 19.3948C17.0967 18.1268 17.284 16.9352 17.6588 15.82C18.0335 14.7048 18.542 13.7347 19.1844 12.9097C19.8268 12.0848 20.5822 11.4317 21.4506 10.9505C22.319 10.4692 23.2469 10.2286 24.2342 10.2286C25.2216 10.2286 26.1495 10.4692 27.0179 10.9505C27.8863 11.4317 28.6417 12.0848 29.284 12.9097C29.9264 13.7347 30.435 14.7048 30.8097 15.82C31.1844 16.9352 31.3718 18.1268 31.3718 19.3948C31.3718 20.6628 31.1844 21.8544 30.8097 22.9696C30.435 24.0848 29.9264 25.0549 29.284 25.8798C28.6417 26.7048 27.8863 27.3579 27.0179 27.8391C26.1495 28.3203 25.2216 28.5609 24.2342 28.5609Z" fill="white"/>
</svg>
